<mxfile host="65bd71144e">
    <diagram id="fzMtfdxxjYxAgoeEOAkT" name="Page-1">
        <mxGraphModel dx="508" dy="574" grid="1" gridSize="10" guides="1" tooltips="1" connect="1" arrows="1" fold="1" page="1" pageScale="1" pageWidth="850" pageHeight="1100" math="0" shadow="0">
            <root>
                <mxCell id="0"/>
                <mxCell id="1" parent="0"/>
                <mxCell id="3" value="" style="rounded=0;whiteSpace=wrap;html=1;" parent="1" vertex="1">
                    <mxGeometry x="160" y="180" width="280" height="150" as="geometry"/>
                </mxCell>
                <mxCell id="4" value="" style="ellipse;whiteSpace=wrap;html=1;aspect=fixed;" parent="1" vertex="1">
                    <mxGeometry x="150" y="170" width="40" height="40" as="geometry"/>
                </mxCell>
                <mxCell id="6" value="" style="ellipse;whiteSpace=wrap;html=1;aspect=fixed;" parent="1" vertex="1">
                    <mxGeometry x="410" y="300" width="40" height="40" as="geometry"/>
                </mxCell>
                <mxCell id="7" value="" style="ellipse;whiteSpace=wrap;html=1;aspect=fixed;" parent="1" vertex="1">
                    <mxGeometry x="150" y="300" width="40" height="40" as="geometry"/>
                </mxCell>
                <mxCell id="8" value="" style="ellipse;whiteSpace=wrap;html=1;aspect=fixed;" parent="1" vertex="1">
                    <mxGeometry x="410" y="170" width="40" height="40" as="geometry"/>
                </mxCell>
                <mxCell id="14" value="" style="verticalLabelPosition=bottom;aspect=fixed;html=1;verticalAlign=top;fillColor=strokeColor;align=center;outlineConnect=0;shape=mxgraph.fluid_power.x10430;points=[[0.634,0,0],[0.634,1,0],[0.83,0,0],[0.732,1,0],[0.83,1,0],[0.343,0.25,0],[0.341,0.75,0],[0.537,0.25,0],[0.537,0.75,0],[0.44,0.75,0],[0.145,1,0],[0,0.5,0],[0,0.625,0],[0,0.75,0]]" parent="1" vertex="1">
                    <mxGeometry x="480" y="270.82" width="80.36" height="31.64" as="geometry"/>
                </mxCell>
                <mxCell id="16" value="" style="verticalLabelPosition=bottom;aspect=fixed;html=1;verticalAlign=top;fillColor=strokeColor;align=center;outlineConnect=0;shape=mxgraph.fluid_power.x10520;points=[[0.57,0,0],[0.57,1,0],[0.856,1,0]]" parent="1" vertex="1">
                    <mxGeometry x="160" y="170" width="158.84" height="160" as="geometry"/>
                </mxCell>
                <mxCell id="18" value="" style="verticalLabelPosition=bottom;aspect=fixed;html=1;verticalAlign=top;fillColor=strokeColor;align=center;outlineConnect=0;shape=mxgraph.fluid_power.x10430;points=[[0.634,0,0],[0.634,1,0],[0.83,0,0],[0.732,1,0],[0.83,1,0],[0.343,0.25,0],[0.341,0.75,0],[0.537,0.25,0],[0.537,0.75,0],[0.44,0.75,0],[0.145,1,0],[0,0.5,0],[0,0.625,0],[0,0.75,0]]" parent="1" vertex="1">
                    <mxGeometry x="480" y="239.18" width="80.36" height="31.64" as="geometry"/>
                </mxCell>
                <mxCell id="19" value="" style="verticalLabelPosition=bottom;aspect=fixed;html=1;verticalAlign=top;fillColor=strokeColor;align=center;outlineConnect=0;shape=mxgraph.fluid_power.x10430;points=[[0.634,0,0],[0.634,1,0],[0.83,0,0],[0.732,1,0],[0.83,1,0],[0.343,0.25,0],[0.341,0.75,0],[0.537,0.25,0],[0.537,0.75,0],[0.44,0.75,0],[0.145,1,0],[0,0.5,0],[0,0.625,0],[0,0.75,0]]" parent="1" vertex="1">
                    <mxGeometry x="254.2" y="138.36" width="80.36" height="31.64" as="geometry"/>
                </mxCell>
                <mxCell id="20" value="" style="rounded=0;whiteSpace=wrap;html=1;" vertex="1" parent="1">
                    <mxGeometry x="110" y="370" width="120" height="60" as="geometry"/>
                </mxCell>
                <mxCell id="21" value="" style="rounded=0;whiteSpace=wrap;html=1;" vertex="1" parent="1">
                    <mxGeometry x="280" y="450" width="120" height="60" as="geometry"/>
                </mxCell>
                <mxCell id="22" value="Text" style="text;html=1;strokeColor=none;fillColor=none;align=center;verticalAlign=middle;whiteSpace=wrap;rounded=0;" vertex="1" parent="1">
                    <mxGeometry x="305" y="385" width="60" height="30" as="geometry"/>
                </mxCell>
                <mxCell id="23" value="Text" style="text;html=1;strokeColor=none;fillColor=none;align=center;verticalAlign=middle;whiteSpace=wrap;rounded=0;" vertex="1" parent="1">
                    <mxGeometry x="160" y="460" width="60" height="30" as="geometry"/>
                </mxCell>
                <mxCell id="24" style="edgeStyle=none;html=1;entryX=1;entryY=0;entryDx=0;entryDy=0;" edge="1" parent="1" source="21" target="21">
                    <mxGeometry relative="1" as="geometry"/>
                </mxCell>
            </root>
        </mxGraphModel>
    </diagram>
    <diagram id="OUNr1xDCwSXzbk8L-hgo" name="Page-1">
        <mxGraphModel grid="1" page="1" gridSize="10" guides="1" tooltips="1" connect="1" arrows="1" fold="1" pageScale="1" pageWidth="850" pageHeight="1100" math="0" shadow="0">
            <root>
                <mxCell id="0"/>
                <mxCell id="1" parent="0"/>
            </root>
        </mxGraphModel>
    </diagram>
</mxfile>